<svg width="223" height="57" viewBox="0 0 223 57" fill="none" xmlns="http://www.w3.org/2000/svg">
<path d="M83.2235 27.8979L81 35H98.7882L102 23H84.4588L83.4706 26.1836H93.1059L92.6118 27.8979H83.2235ZM88.6588 32.551L89.4 30.3469H91.8706L91.3765 32.551H88.6588Z" fill="white"/>
<path d="M41.2381 30.1021L40.7619 31.8164H31.9524L31 35H47.6667L49.5714 27.6531H41.9524L42.1905 26.1838H50.0476L51 23H34.3333L32.4286 30.1021H41.2381Z" fill="white"/>
<path d="M109.153 35L110.388 30.3469H120.024L122 23H104.459L101 35H109.153ZM114.341 25.449L113.847 27.8979H111.129L111.871 25.449H114.341Z" fill="white"/>
<path d="M71.8947 23L66.6015 26.9184L63.4737 23H53.3684L50 35H57.9399L60.3459 26.1838H61.3083L62.5113 27.6531L60.5865 35H68.2857L70.4511 27.6531L72.3759 26.1838H73.3383L70.9323 35H78.6316L82 23H71.8947Z" fill="white"/>
<path d="M54.2 48H53.4L53 50H53.8C54.6 50 55 49.4286 55 48.8572C55 48.2857 55 48.5714 54.8 48.2857L54.2 48Z" fill="white"/>
<path d="M17.6429 44L14 57H112.6L116 44H17.6429ZM27.3571 49.7501C28.3286 50.0001 29.0571 50.5 29.0571 51.5C29.0571 52.5 27.8429 54 26.1429 54C25.0489 53.9972 24.0008 53.5476 23.2286 52.75L24.4429 51.5C24.7017 51.7521 25.007 51.9484 25.3407 52.0772C25.6743 52.206 26.0296 52.2648 26.3857 52.2501C26.8714 52.2501 27.1143 52.2501 27.1143 51.7501C27.1143 51.2501 27.1143 51.5001 26.1429 51.0001C25.1714 50.5001 24.2 50.2501 24.4429 49.2501C24.4411 48.8996 24.511 48.5527 24.648 48.2319C24.7849 47.911 24.9859 47.6233 25.2378 47.3876C25.4897 47.1519 25.7869 46.9733 26.1102 46.8635C26.4335 46.7536 26.7756 46.715 27.1143 46.7501C28.1625 46.7672 29.1801 47.1163 30.0286 47.75L28.8143 49.2501C28.3524 48.7997 27.7496 48.5338 27.1143 48.5001C26.6286 48.5001 26.3857 48.5 26.3857 49C26.3857 49.5 26.3857 49.2501 27.3571 49.7501ZM43.6286 48.5001H39.9857V49.5H43.3857L42.9 51.0001H39.5L39.0143 52.2501H42.6571L42.1714 53.75H36.8286L38.7714 47H44.1143L43.6286 48.5001ZM55.2857 51.5L56.2571 53.75H54.0714L53.3429 51.7501H52.3714L51.8857 53.75H49.9429L51.8857 47H54.3143C54.7475 46.9455 55.1869 46.984 55.6049 47.1131C56.0229 47.2422 56.4104 47.459 56.7429 47.75C57.0402 48.0964 57.2119 48.5381 57.2286 49C57.1988 49.5733 56.9954 50.1227 56.647 50.571C56.2986 51.0194 55.8225 51.3442 55.2857 51.5ZM66.7 54H65L64.0286 47H66.2143V51.25L68.8857 47H71.0714L66.7 54ZM78.1143 53.75H76.4143L78.1143 47H80.0572L78.1143 53.75ZM91.2286 52.2501C91.79 52.2027 92.312 51.9339 92.6857 51.5L93.9 52.75C93.5364 53.17 93.0857 53.5005 92.5813 53.7169C92.0768 53.9333 91.5315 54.03 90.9857 54C90.5831 54.0346 90.1779 53.9829 89.7958 53.8477C89.4137 53.7125 89.063 53.497 88.7661 53.2149C88.4693 52.9328 88.2326 52.5902 88.0712 52.2089C87.9098 51.8276 87.8272 51.416 87.8286 51.0001C87.8907 49.8505 88.3786 48.769 89.1917 47.9784C90.0049 47.1878 91.0815 46.7483 92.2 46.7501C92.7618 46.7457 93.3128 46.9085 93.7867 47.219C94.2607 47.5295 94.6374 47.9744 94.8714 48.5001L93.1714 49.5C93.1147 49.2134 92.9621 48.9564 92.7402 48.7737C92.5183 48.591 92.2412 48.4942 91.9572 48.5001C91.3775 48.5001 90.8215 48.737 90.4116 49.159C90.0017 49.5809 89.7714 50.1533 89.7714 50.75C89.7714 50.947 89.8091 51.1421 89.8823 51.324C89.9556 51.506 90.0629 51.6714 90.1982 51.8107C90.3335 51.9499 90.4942 52.0604 90.671 52.1358C90.8477 52.2112 91.0372 52.2501 91.2286 52.2501ZM107.986 48.5001H104.586L104.1 49.5H107.5L107.014 51.0001H103.857V52.2501H107.257V53.75H101.186L103.129 47H108.471L107.986 48.5001Z" fill="white"/>
<path d="M180 56L180.457 54.7931H180.914C181.371 54.7931 182.057 54.5518 182.971 50.4484L183.429 49H188L186.171 55.7585H184.8L186.171 50.4484H184.343V51.1725C183.2 55.5172 182.286 56 180.914 56H180Z" fill="white"/>
<path d="M195.96 49H201V50.4999H197.4L196.92 51.9999H200.04V53.2499H196.92L196.44 54.75H200.04V56H195L195.96 49Z" fill="white"/>
<path d="M209.087 50.4999H207V49H213V50.4999H210.652L209.087 56H207.522L209.087 50.4999Z" fill="white"/>
<path d="M160.526 13L157.846 22.5238H168.321L169.782 16.8096H178.308L175.628 26.3334H156.628L152 43H181.474L182.692 38.9524H163.692L166.128 30.1428H185.128L190 13H160.526Z" fill="white"/>
<path d="M193.526 13L185 43H214.718L223 13H193.526ZM205.218 39.1905H196.692L203.026 17.0477H211.551L205.218 39.1905Z" fill="white"/>
<path d="M112.855 2.49629C109.317 1.30475 105.664 0.488553 101.957 0.0610339C95.3041 -0.183335 88.6448 0.306586 82.0983 1.52213C77.2379 2.68368 72.5253 4.39956 68.052 6.63627C61.5809 9.82968 55.9415 14.4996 51.5839 20.2737H84.2779C85.254 17.6045 86.9271 15.2491 89.1214 13.455C93.8387 10.0045 99.5142 8.13045 105.347 8.09736C107.78 7.99119 110.216 8.15455 112.613 8.58444C116.098 9.38928 119.39 10.879 122.3 12.9679C124.376 14.3665 126.037 16.3059 127.103 18.5791C128.169 20.8522 128.602 23.3737 128.354 25.8747C128.354 27.3778 128.06 28.8662 127.488 30.2549C126.916 31.6436 126.077 32.9053 125.02 33.9681C123.963 35.031 122.709 35.8741 121.328 36.4493C119.947 37.0245 118.467 37.3205 116.972 37.3205H27.6083L33.1784 17.5949H35.6001L36.811 13.455H20.3429L12.8354 19.056L11.6245 23.196H7.02316L6.05445 26.3618H10.898L9.68711 30.5018H1.45307L0 35.1288H16.2259L18.6477 26.3618H22.7647L18.8899 39.9994H116.245C119.62 40.0302 122.912 38.9529 125.622 36.9311C128.332 34.9092 130.311 32.0533 131.26 28.7971C132.134 25.9002 132.236 22.8237 131.556 19.8749C130.876 16.9261 129.438 14.2085 127.386 11.9939C123.557 7.4824 118.509 4.18343 112.855 2.49629ZM19.6164 23.196L20.8273 18.8126L22.5225 17.5949H25.1865L23.4913 23.196H19.6164Z" fill="white"/>
<path d="M136.232 56L152 0H150.768L135 56H136.232Z" fill="white"/>
</svg>
