<svg width="272" height="54" viewBox="0 0 272 54" fill="none" xmlns="http://www.w3.org/2000/svg">
<g filter="url(#filter0_d_128_439)">
<path d="M253.96 42.9998L265 3L19.4838 2.99998L7.50015 43L253.96 42.9998Z" fill="white"/>
</g>
<path d="M7.61032 41.7903L18.5087 4.20968L33.4128 4.2097L23.08 41.7903L7.61032 41.7903Z" fill="#00B1EB" stroke="#00B1EB" stroke-width="2.41935"/>
<path d="M250 3L238 43" stroke="#00B1EB"/>
<path d="M50.435 26.965L51.065 25.54C51.515 25.85 52.005 26.09 52.535 26.26C53.075 26.42 53.61 26.505 54.14 26.515C54.67 26.525 55.15 26.465 55.58 26.335C56.02 26.205 56.37 26.01 56.63 25.75C56.89 25.49 57.02 25.165 57.02 24.775C57.02 24.305 56.825 23.955 56.435 23.725C56.055 23.485 55.535 23.365 54.875 23.365H52.43V21.835H54.725C55.315 21.835 55.77 21.715 56.09 21.475C56.42 21.235 56.585 20.91 56.585 20.5C56.585 20.16 56.475 19.88 56.255 19.66C56.045 19.44 55.755 19.275 55.385 19.165C55.025 19.055 54.615 19.005 54.155 19.015C53.705 19.015 53.235 19.085 52.745 19.225C52.255 19.355 51.79 19.55 51.35 19.81L50.735 18.235C51.395 17.885 52.085 17.64 52.805 17.5C53.535 17.36 54.24 17.32 54.92 17.38C55.6 17.44 56.21 17.595 56.75 17.845C57.3 18.095 57.74 18.425 58.07 18.835C58.4 19.235 58.565 19.71 58.565 20.26C58.565 20.76 58.43 21.205 58.16 21.595C57.9 21.975 57.54 22.27 57.08 22.48C56.62 22.69 56.085 22.795 55.475 22.795L55.55 22.315C56.24 22.315 56.84 22.435 57.35 22.675C57.87 22.905 58.27 23.225 58.55 23.635C58.84 24.045 58.985 24.52 58.985 25.06C58.985 25.57 58.855 26.025 58.595 26.425C58.335 26.815 57.98 27.145 57.53 27.415C57.08 27.675 56.565 27.87 55.985 28C55.405 28.12 54.795 28.165 54.155 28.135C53.515 28.105 52.875 27.995 52.235 27.805C51.605 27.615 51.005 27.335 50.435 26.965ZM65.2612 28V26.38L65.1562 26.035V23.2C65.1562 22.65 64.9912 22.225 64.6612 21.925C64.3312 21.615 63.8312 21.46 63.1612 21.46C62.7112 21.46 62.2662 21.53 61.8262 21.67C61.3962 21.81 61.0312 22.005 60.7312 22.255L59.9962 20.89C60.4262 20.56 60.9362 20.315 61.5262 20.155C62.1262 19.985 62.7462 19.9 63.3862 19.9C64.5462 19.9 65.4412 20.18 66.0712 20.74C66.7112 21.29 67.0312 22.145 67.0312 23.305V28H65.2612ZM62.7412 28.105C62.1412 28.105 61.6162 28.005 61.1662 27.805C60.7162 27.595 60.3662 27.31 60.1162 26.95C59.8762 26.58 59.7562 26.165 59.7562 25.705C59.7562 25.255 59.8612 24.85 60.0712 24.49C60.2912 24.13 60.6462 23.845 61.1362 23.635C61.6262 23.425 62.2762 23.32 63.0862 23.32H65.4112V24.565H63.2212C62.5812 24.565 62.1512 24.67 61.9312 24.88C61.7112 25.08 61.6012 25.33 61.6012 25.63C61.6012 25.97 61.7362 26.24 62.0062 26.44C62.2762 26.64 62.6512 26.74 63.1312 26.74C63.5912 26.74 64.0012 26.635 64.3612 26.425C64.7312 26.215 64.9962 25.905 65.1562 25.495L65.4712 26.62C65.2912 27.09 64.9662 27.455 64.4962 27.715C64.0362 27.975 63.4512 28.105 62.7412 28.105ZM74.4964 28L71.6014 24.16L73.1314 23.215L76.7014 28H74.4964ZM68.7514 28V19.99H70.6264V28H68.7514ZM70.0714 24.79V23.23H72.7864V24.79H70.0714ZM73.3114 24.22L71.5564 24.01L74.4964 19.99H76.5064L73.3114 24.22ZM82.1374 28V26.38L82.0324 26.035V23.2C82.0324 22.65 81.8674 22.225 81.5374 21.925C81.2074 21.615 80.7074 21.46 80.0374 21.46C79.5874 21.46 79.1424 21.53 78.7024 21.67C78.2724 21.81 77.9074 22.005 77.6074 22.255L76.8724 20.89C77.3024 20.56 77.8124 20.315 78.4024 20.155C79.0024 19.985 79.6224 19.9 80.2624 19.9C81.4224 19.9 82.3174 20.18 82.9474 20.74C83.5874 21.29 83.9074 22.145 83.9074 23.305V28H82.1374ZM79.6174 28.105C79.0174 28.105 78.4924 28.005 78.0424 27.805C77.5924 27.595 77.2424 27.31 76.9924 26.95C76.7524 26.58 76.6324 26.165 76.6324 25.705C76.6324 25.255 76.7374 24.85 76.9474 24.49C77.1674 24.13 77.5224 23.845 78.0124 23.635C78.5024 23.425 79.1524 23.32 79.9624 23.32H82.2874V24.565H80.0974C79.4574 24.565 79.0274 24.67 78.8074 24.88C78.5874 25.08 78.4774 25.33 78.4774 25.63C78.4774 25.97 78.6124 26.24 78.8824 26.44C79.1524 26.64 79.5274 26.74 80.0074 26.74C80.4674 26.74 80.8774 26.635 81.2374 26.425C81.6074 26.215 81.8724 25.905 82.0324 25.495L82.3474 26.62C82.1674 27.09 81.8424 27.455 81.3724 27.715C80.9124 27.975 80.3274 28.105 79.6174 28.105ZM88.06 28.135C88.8 28.135 89.455 28.03 90.025 27.82C90.605 27.61 91.06 27.32 91.39 26.95C91.72 26.57 91.885 26.135 91.885 25.645C91.885 25.035 91.63 24.555 91.12 24.205C90.61 23.845 89.91 23.665 89.02 23.665L88.96 24.07C89.48 24.07 89.94 23.985 90.34 23.815C90.75 23.645 91.07 23.41 91.3 23.11C91.54 22.8 91.66 22.455 91.66 22.075C91.66 21.615 91.495 21.215 91.165 20.875C90.835 20.535 90.385 20.275 89.815 20.095C89.245 19.915 88.595 19.84 87.865 19.87C87.385 19.88 86.9 19.95 86.41 20.08C85.93 20.2 85.435 20.375 84.925 20.605L85.405 21.985C85.845 21.795 86.275 21.65 86.695 21.55C87.125 21.45 87.54 21.4 87.94 21.4C88.32 21.4 88.645 21.44 88.915 21.52C89.185 21.59 89.39 21.7 89.53 21.85C89.68 21.99 89.755 22.155 89.755 22.345C89.755 22.535 89.695 22.7 89.575 22.84C89.455 22.98 89.28 23.085 89.05 23.155C88.83 23.225 88.56 23.26 88.24 23.26H86.845V24.52H88.39C88.9 24.52 89.29 24.605 89.56 24.775C89.84 24.935 89.98 25.175 89.98 25.495C89.98 25.715 89.895 25.91 89.725 26.08C89.565 26.25 89.335 26.38 89.035 26.47C88.735 26.55 88.375 26.59 87.955 26.59C87.465 26.59 86.975 26.53 86.485 26.41C85.995 26.29 85.555 26.12 85.165 25.9L84.64 27.295C85.12 27.565 85.655 27.775 86.245 27.925C86.845 28.065 87.45 28.135 88.06 28.135ZM98.0761 28V26.38L97.9711 26.035V23.2C97.9711 22.65 97.8061 22.225 97.4761 21.925C97.1461 21.615 96.6461 21.46 95.9761 21.46C95.5261 21.46 95.0811 21.53 94.6411 21.67C94.2111 21.81 93.8461 22.005 93.5461 22.255L92.8111 20.89C93.2411 20.56 93.7511 20.315 94.3411 20.155C94.9411 19.985 95.5611 19.9 96.2011 19.9C97.3611 19.9 98.2561 20.18 98.8861 20.74C99.5261 21.29 99.8461 22.145 99.8461 23.305V28H98.0761ZM95.5561 28.105C94.9561 28.105 94.4311 28.005 93.9811 27.805C93.5311 27.595 93.1811 27.31 92.9311 26.95C92.6911 26.58 92.5711 26.165 92.5711 25.705C92.5711 25.255 92.6761 24.85 92.8861 24.49C93.1061 24.13 93.4611 23.845 93.9511 23.635C94.4411 23.425 95.0911 23.32 95.9011 23.32H98.2261V24.565H96.0361C95.3961 24.565 94.9661 24.67 94.7461 24.88C94.5261 25.08 94.4161 25.33 94.4161 25.63C94.4161 25.97 94.5511 26.24 94.8211 26.44C95.0911 26.64 95.4661 26.74 95.9461 26.74C96.4061 26.74 96.8161 26.635 97.1761 26.425C97.5461 26.215 97.8111 25.905 97.9711 25.495L98.2861 26.62C98.1061 27.09 97.7811 27.455 97.3111 27.715C96.8511 27.975 96.2661 28.105 95.5561 28.105ZM103.231 28V21.13L103.666 21.58H100.411V19.99H107.911V21.58H104.671L105.106 21.13V28H103.231ZM112.691 22.63C113.721 22.63 114.506 22.86 115.046 23.32C115.586 23.78 115.856 24.43 115.856 25.27C115.856 26.14 115.556 26.82 114.956 27.31C114.356 27.79 113.511 28.025 112.421 28.015L108.671 28V19.99H110.546V22.615L112.691 22.63ZM112.256 26.635C112.806 26.645 113.226 26.53 113.516 26.29C113.806 26.05 113.951 25.7 113.951 25.24C113.951 24.78 113.806 24.45 113.516 24.25C113.236 24.04 112.816 23.93 112.256 23.92L110.546 23.905V26.62L112.256 26.635ZM126.195 28L123.3 24.16L124.83 23.215L128.4 28H126.195ZM120.45 28V19.99H122.325V28H120.45ZM121.77 24.79V23.23H124.485V24.79H121.77ZM125.01 24.22L123.255 24.01L126.195 19.99H128.205L125.01 24.22ZM133.836 28V26.38L133.731 26.035V23.2C133.731 22.65 133.566 22.225 133.236 21.925C132.906 21.615 132.406 21.46 131.736 21.46C131.286 21.46 130.841 21.53 130.401 21.67C129.971 21.81 129.606 22.005 129.306 22.255L128.571 20.89C129.001 20.56 129.511 20.315 130.101 20.155C130.701 19.985 131.321 19.9 131.961 19.9C133.121 19.9 134.016 20.18 134.646 20.74C135.286 21.29 135.606 22.145 135.606 23.305V28H133.836ZM131.316 28.105C130.716 28.105 130.191 28.005 129.741 27.805C129.291 27.595 128.941 27.31 128.691 26.95C128.451 26.58 128.331 26.165 128.331 25.705C128.331 25.255 128.436 24.85 128.646 24.49C128.866 24.13 129.221 23.845 129.711 23.635C130.201 23.425 130.851 23.32 131.661 23.32H133.986V24.565H131.796C131.156 24.565 130.726 24.67 130.506 24.88C130.286 25.08 130.176 25.33 130.176 25.63C130.176 25.97 130.311 26.24 130.581 26.44C130.851 26.64 131.226 26.74 131.706 26.74C132.166 26.74 132.576 26.635 132.936 26.425C133.306 26.215 133.571 25.905 133.731 25.495L134.046 26.62C133.866 27.09 133.541 27.455 133.071 27.715C132.611 27.975 132.026 28.105 131.316 28.105ZM141.766 28.105C141.116 28.105 140.521 27.955 139.981 27.655C139.451 27.355 139.026 26.905 138.706 26.305C138.396 25.695 138.241 24.925 138.241 23.995C138.241 23.055 138.391 22.285 138.691 21.685C139.001 21.085 139.421 20.64 139.951 20.35C140.481 20.05 141.086 19.9 141.766 19.9C142.556 19.9 143.251 20.07 143.851 20.41C144.461 20.75 144.941 21.225 145.291 21.835C145.651 22.445 145.831 23.165 145.831 23.995C145.831 24.825 145.651 25.55 145.291 26.17C144.941 26.78 144.461 27.255 143.851 27.595C143.251 27.935 142.556 28.105 141.766 28.105ZM137.326 30.91V19.99H139.111V21.88L139.051 24.01L139.201 26.14V30.91H137.326ZM141.556 26.5C142.006 26.5 142.406 26.4 142.756 26.2C143.116 26 143.401 25.71 143.611 25.33C143.821 24.95 143.926 24.505 143.926 23.995C143.926 23.475 143.821 23.03 143.611 22.66C143.401 22.28 143.116 21.99 142.756 21.79C142.406 21.59 142.006 21.49 141.556 21.49C141.106 21.49 140.701 21.59 140.341 21.79C139.981 21.99 139.696 22.28 139.486 22.66C139.276 23.03 139.171 23.475 139.171 23.995C139.171 24.505 139.276 24.95 139.486 25.33C139.696 25.71 139.981 26 140.341 26.2C140.701 26.4 141.106 26.5 141.556 26.5ZM148.469 28V21.13L148.904 21.58H145.649V19.99H153.149V21.58H149.909L150.344 21.13V28H148.469ZM154.644 31.015C154.254 31.015 153.864 30.95 153.474 30.82C153.084 30.69 152.759 30.51 152.499 30.28L153.249 28.9C153.439 29.07 153.654 29.205 153.894 29.305C154.134 29.405 154.379 29.455 154.629 29.455C154.969 29.455 155.244 29.37 155.454 29.2C155.664 29.03 155.859 28.745 156.039 28.345L156.504 27.295L156.654 27.07L159.684 19.99H161.484L157.734 28.645C157.484 29.245 157.204 29.72 156.894 30.07C156.594 30.42 156.254 30.665 155.874 30.805C155.504 30.945 155.094 31.015 154.644 31.015ZM156.294 28.285L152.679 19.99H154.629L157.569 26.905L156.294 28.285Z" fill="#1B4F92"/>
<defs>
<filter id="filter0_d_128_439" x="0.5" y="0" width="271.5" height="54" filterUnits="userSpaceOnUse" color-interpolation-filters="sRGB">
<feFlood flood-opacity="0" result="BackgroundImageFix"/>
<feColorMatrix in="SourceAlpha" type="matrix" values="0 0 0 0 0 0 0 0 0 0 0 0 0 0 0 0 0 0 127 0" result="hardAlpha"/>
<feOffset dy="4"/>
<feGaussianBlur stdDeviation="3.5"/>
<feComposite in2="hardAlpha" operator="out"/>
<feColorMatrix type="matrix" values="0 0 0 0 0 0 0 0 0 0 0 0 0 0 0 0 0 0 0.26 0"/>
<feBlend mode="normal" in2="BackgroundImageFix" result="effect1_dropShadow_128_439"/>
<feBlend mode="normal" in="SourceGraphic" in2="effect1_dropShadow_128_439" result="shape"/>
</filter>
</defs>
</svg>
