<svg width="24" height="24" viewBox="0 0 24 24" fill="none" xmlns="http://www.w3.org/2000/svg">
<path fill-rule="evenodd" clip-rule="evenodd" d="M11.9976 2.40368e-07C9.6141 0.000476985 7.28474 0.710737 5.30648 2.04023C3.32823 3.36972 1.79071 5.25825 0.88994 7.46497C-0.0108307 9.6717 -0.234031 12.0966 0.248778 14.4307C0.731587 16.7648 1.89853 18.9023 3.60085 20.5706C5.30318 22.2389 7.46374 23.3624 9.80711 23.7979C12.1505 24.2335 14.5705 23.9613 16.7586 23.0161C18.9466 22.071 20.8037 20.4957 22.093 18.491C23.3822 16.4863 24.0453 14.143 23.9976 11.76C23.9348 8.61922 22.6428 5.62827 20.3992 3.42948C18.1555 1.2307 15.139 -0.000628109 11.9976 2.40368e-07ZM13.4376 18.96H10.5576V9.36003H13.4376V18.96ZM13.4376 6.96004C13.0222 7.27161 12.5169 7.44007 11.9976 7.44007C11.4783 7.44007 10.973 7.27161 10.5576 6.96004C10.2638 6.62753 10.0941 6.20349 10.0776 5.76004C10.0556 5.5 10.0867 5.23815 10.1693 4.99056C10.2518 4.74298 10.3839 4.51476 10.5576 4.31996C10.973 4.00839 11.4783 3.84008 11.9976 3.84008C12.5169 3.84008 13.0222 4.00839 13.4376 4.31996C13.7315 4.65247 13.9011 5.07651 13.9176 5.51996C13.9397 5.78 13.9085 6.04185 13.8259 6.28944C13.7434 6.53702 13.6113 6.76524 13.4376 6.96004Z" fill="white"/>
</svg>
