<svg width="131" height="43" viewBox="0 0 131 43" fill="none" xmlns="http://www.w3.org/2000/svg">
<path d="M125.189 0H5.81144C2.60186 0 0 2.61047 0 5.83056V37.1694C0 40.3895 2.60186 43 5.81144 43H125.189C128.398 43 131 40.3895 131 37.1694V5.83056C131 2.61047 128.398 0 125.189 0Z" fill="#1D1D1B"/>
<path d="M10 8V22.5V37L24 22.5L10 8Z" fill="url(#paint0_linear_16_60)"/>
<path d="M28 18.2666L22.3157 15L10 8L24.2105 22L28 18.2666Z" fill="url(#paint1_linear_16_60)"/>
<path d="M10 37L22.3157 30L28 26.7333L24.2105 23L10 37Z" fill="url(#paint2_linear_16_60)"/>
<path d="M28 19L24 23.0001L28 27L35 23.0001L28 19Z" fill="url(#paint3_linear_16_60)"/>
<path d="M101.854 28.1601H100.409C99.9126 27.9802 99.4894 27.6429 99.2044 27.2V32H98V20H98.9635V21.2C99.2349 20.6886 99.6546 20.2704 100.168 20H101.613C102.62 20.0396 103.571 20.4703 104.263 21.2C104.783 22.1556 105.033 23.234 104.985 24.32C105.077 25.5186 104.735 26.7104 104.022 27.68C103.71 27.8985 103.358 28.0534 102.986 28.1357C102.614 28.2181 102.229 28.2264 101.854 28.1601ZM101.613 20.72C101.26 20.7059 100.908 20.7623 100.577 20.8859C100.246 21.0096 99.9429 21.1981 99.6862 21.4401C99.3589 22.1129 99.194 22.8524 99.2044 23.6C99.1784 24.5039 99.3425 25.4032 99.6862 26.2401C99.9429 26.4821 100.246 26.6704 100.577 26.7941C100.908 26.9177 101.26 26.9742 101.613 26.9601C101.959 26.9928 102.307 26.918 102.609 26.7462C102.911 26.5743 103.152 26.3137 103.299 26C103.776 25.2896 104.03 24.4544 104.03 23.6C104.03 22.7456 103.776 21.9104 103.299 21.2C103.076 20.9928 102.807 20.8414 102.514 20.7579C102.221 20.6745 101.912 20.6614 101.613 20.72Z" fill="#F9F9F9"/>
<path d="M108 28H107V16H108V28Z" fill="#F9F9F9"/>
<path d="M115.783 29V27.7518L114.338 28.7503H112.652C111.977 28.7737 111.31 28.6008 110.725 28.2511C110.482 27.985 110.293 27.6712 110.169 27.3282C110.045 26.9852 109.988 26.6198 110.002 26.2538C110.002 24.5062 111.207 23.5077 114.097 23.5077H115.543V23.0084C115.565 22.7379 115.533 22.4655 115.451 22.2079C115.368 21.9504 115.235 21.7132 115.061 21.5105C114.82 21.0112 114.338 21.0112 113.615 21.0112C112.784 20.9591 111.954 21.1312 111.207 21.5105V20.5119L112.411 20.0125H114.097C114.486 19.9739 114.878 20.0248 115.246 20.1617C115.614 20.2986 115.948 20.5181 116.224 20.8044C116.5 21.0907 116.712 21.4367 116.844 21.8177C116.976 22.1987 117.025 22.6053 116.988 23.0084V29H115.783ZM112.893 28.0013C113.246 28.016 113.598 27.9573 113.929 27.8287C114.26 27.7001 114.563 27.5042 114.82 27.2524C115.056 27.0336 115.244 26.7637 115.368 26.4618C115.493 26.1598 115.553 25.8332 115.543 25.5049V24.7559H114.097L111.929 25.2553C111.698 25.3588 111.504 25.5349 111.374 25.7589C111.245 25.9828 111.186 26.2433 111.207 26.5035C111.207 26.6973 111.25 26.8883 111.334 27.0617C111.417 27.235 111.539 27.3857 111.688 27.502L112.893 28.0013Z" fill="#F9F9F9"/>
<path d="M117 20H118.455L120.151 24.8C120.555 25.5431 120.803 26.3595 120.879 27.2H121.121C121.102 26.7086 121.184 26.2185 121.364 25.7599L123.546 20H125L121.364 29.6L119.909 31.52L118.212 32H117V31.0399H117.97C118.939 31.0399 119.424 30.56 119.909 29.6L120.394 28.4L117 20Z" fill="#F9F9F9"/>
<path d="M78.7504 20.7506C79.1631 21.0176 79.4967 21.3903 79.7165 21.83C79.9363 22.2696 80.0343 22.7601 80.0002 23.2505C79.9833 23.7604 79.8368 24.2574 79.5743 24.6948C79.3119 25.1323 78.9423 25.4956 78.5004 25.7504C78.3452 25.8668 78.2192 26.0178 78.1324 26.1914C78.0456 26.3649 78.0005 26.5564 78.0005 26.7504C78.0005 27.0004 78.2504 27.2504 78.5004 27.5004L79.2503 28.0004C80.0002 28.7503 80.7501 29.2503 80.7501 30.5002C80.7501 31.7502 79.0003 34 76.0008 34C73.0012 34 72.0014 32.7501 72.0014 31.5001C71.9862 31.047 72.0944 30.5983 72.3146 30.202C72.5347 29.8056 72.8585 29.4767 73.2512 29.2503C74.3639 28.7513 75.5424 28.4145 76.7507 28.2503C76.5757 28.0953 76.4394 27.9015 76.3526 27.6845C76.2658 27.4675 76.2309 27.2332 76.2508 27.0003C76.2665 26.8077 76.3561 26.6286 76.5007 26.5003H76.0008C75.2052 26.5003 74.4423 26.1844 73.8798 25.6218C73.3173 25.0592 73.0012 24.2961 73.0012 23.5004C72.9946 23.0384 73.0796 22.5796 73.2512 22.1506C73.4228 21.7215 73.6776 21.3306 74.0011 21.0005C74.9514 20.3323 76.089 19.9824 77.2506 20.0007H81L80.0002 20.7506H78.7504ZM77.5006 28.7503H77.0006C76.3835 28.7597 75.7798 28.9322 75.2509 29.2503C74.7868 29.2503 74.3418 29.4346 74.0137 29.7628C73.6855 30.091 73.5012 30.536 73.5012 31.0001C73.5012 32.25 74.751 33.2501 76.7507 33.2501C78.7504 33.2501 79.5003 32.5001 79.5003 31.2502C79.5003 30.0002 78.7504 29.7503 77.5006 28.7503ZM78.0005 25.5005C78.1957 25.3072 78.3426 25.0708 78.4295 24.8102C78.5163 24.5496 78.5406 24.2722 78.5004 24.0004C78.5004 22.7505 77.7505 20.7506 76.2508 20.7506L75.0009 21.2506C74.8058 21.4439 74.6588 21.6803 74.5719 21.9409C74.4851 22.2015 74.4608 22.4788 74.501 22.7505C74.501 24.0004 75.2509 26.0003 76.7507 26.0003L78.0005 25.5005Z" fill="#F9F9F9"/>
<path d="M67.4246 28.8451C66.2925 28.8469 65.2028 28.4074 64.3798 27.6168C63.5567 26.8262 63.0629 25.7449 63 24.5952C63.063 23.3793 63.5828 22.2343 64.4519 21.3968C65.321 20.5594 66.4732 20.0934 67.6704 20.0951C68.3248 19.9561 69.0017 19.9696 69.6501 20.1348C70.2986 20.2999 70.9019 20.6124 71.4146 21.0486C71.9273 21.4849 72.3362 22.0337 72.6104 22.6537C72.8847 23.2737 73.0173 23.9489 72.9982 24.6285C72.9791 25.3081 72.8088 25.9746 72.5002 26.5777C72.1916 27.1808 71.7526 27.7049 71.2162 28.1107C70.6798 28.5165 70.06 28.7933 69.4033 28.9205C68.7466 29.0477 68.0701 29.022 67.4246 28.8451ZM69.6369 27.3452C70.0496 26.7686 70.2259 26.0515 70.1285 25.3452C70.1285 23.8452 69.3911 20.8452 67.1788 20.8452L65.7039 21.3451C65.3929 21.6281 65.1444 21.975 64.9749 22.3629C64.8054 22.7507 64.7188 23.1707 64.7207 23.5952C64.7207 25.3452 65.7039 28.3453 67.9162 28.3453C68.2694 28.3793 68.6243 28.3015 68.9323 28.1225C69.2404 27.9435 69.4865 27.672 69.6369 27.3452Z" fill="#F9F9F9"/>
<path d="M57.4246 28.8451C56.8555 28.8792 56.2856 28.7947 55.7499 28.5964C55.2141 28.3982 54.724 28.0904 54.3095 27.6923C53.8951 27.2942 53.5651 26.8141 53.3399 26.2815C53.1147 25.7489 52.999 25.175 53 24.5952C53.063 23.3793 53.5828 22.2343 54.4519 21.3968C55.321 20.5594 56.4732 20.0934 57.6704 20.0951C58.3248 19.9561 59.0016 19.9696 59.6501 20.1348C60.2986 20.2999 60.9019 20.6124 61.4146 21.0486C61.9273 21.4849 62.3362 22.0337 62.6104 22.6537C62.8847 23.2737 63.0173 23.9489 62.9982 24.6285C62.9791 25.3081 62.8088 25.9746 62.5002 26.5777C62.1916 27.1808 61.7525 27.7049 61.2162 28.1107C60.6798 28.5165 60.06 28.7933 59.4033 28.9205C58.7466 29.0477 58.0701 29.022 57.4246 28.8451ZM59.6369 27.3452C60.0496 26.7686 60.2258 26.0515 60.1285 25.3452C60.1285 23.8452 59.3911 20.8452 57.1788 20.8452L55.4581 21.3451C54.9943 22.0021 54.7372 22.7866 54.7207 23.5952C54.7207 25.3452 55.7039 28.3453 57.6704 28.3453C58.0554 28.3674 58.4395 28.2866 58.7845 28.1112C59.1294 27.9358 59.4233 27.6717 59.6369 27.3452Z" fill="#F9F9F9"/>
<path d="M52.2645 28.2609L49.8127 28.9811H46.8705C45.972 29.0497 45.0689 28.9311 44.2207 28.6329C43.3725 28.3348 42.5985 27.8639 41.9498 27.2513C41.3011 26.6388 40.7923 25.8987 40.4572 25.0795C40.1221 24.2604 39.9681 23.3808 40.0055 22.4992C40.0361 21.5949 40.2528 20.706 40.6427 19.8857C41.0325 19.0655 41.5875 18.3307 42.2743 17.7255C42.9611 17.1202 43.7656 16.657 44.6397 16.3635C45.5137 16.07 46.4393 15.9523 47.3609 16.0174H50.0579L52.2645 17.2178L50.7934 18.6581H50.3031L50.7934 17.938C49.7105 17.0028 48.3143 16.4901 46.8705 16.4975C46.195 16.4588 45.5189 16.5647 44.8894 16.8078C44.2598 17.0509 43.692 17.4255 43.2253 17.9053C42.7586 18.3851 42.4043 18.9587 42.1869 19.5862C41.9696 20.2138 41.8945 20.8802 41.9669 21.539C41.9339 22.3787 42.0744 23.2162 42.38 24.0014C42.6855 24.7866 43.1498 25.5033 43.7451 26.1086C44.3404 26.7138 45.0543 27.1953 45.8441 27.5239C46.634 27.8525 47.4834 28.0215 48.3416 28.0209L50.5482 27.5407V24.6599H47.8513L49.3223 23.9397H53L52.5096 24.4199C52.2645 24.4199 52.2645 24.9 52.2645 25.14V28.2609Z" fill="#F9F9F9"/>
<path d="M83.9474 27.5C83.4211 27.5 83.1579 27.2501 83.1579 26.5001V16.25C83.4211 15.5 83.421 15.5 84.2105 15H81.3158L80 15.75H81.3158V26.9999C81.3158 27.4999 81.3158 27.5 80.7894 28H84.2105L85 27.5H83.9474Z" fill="#F9F9F9"/>
<path d="M91.9678 27.9906H89.6452C88.7548 28.0442 87.8657 27.8672 87.0645 27.4768C86.4376 26.9853 85.9275 26.362 85.5706 25.6516C85.2137 24.9411 85.0189 24.1609 85 23.3668C85 22.2086 85.4622 21.0978 86.285 20.2789C87.1077 19.4599 88.2236 19 89.3871 19L91.4516 19.5136C92.0088 20.1109 92.4467 20.8084 92.7419 21.5688L88.3548 23.3668H86.8065C86.9173 24.3507 87.3607 25.268 88.0641 25.9681C88.7674 26.6682 89.6889 27.1096 90.6774 27.2199C91.4954 27.1194 92.285 26.8574 93 26.4493L91.9678 27.9906ZM90.1613 22.3393C90.6774 22.3393 90.6774 22.0824 90.6774 21.8256C90.6149 21.3945 90.3974 21.0006 90.0651 20.7171C89.7329 20.4336 89.3085 20.2799 88.871 20.2844C88.0968 20.2844 86.8065 20.7981 86.8065 22.8531V23.8805L90.1613 22.3393Z" fill="#F9F9F9"/>
<path d="M92.2422 20V21H92V20H92.2422Z" fill="#F9F9F9"/>
<path d="M95 21V20.1667H94.6666V21L94 20.1667V21V20L94.6666 20.8333V20H95V21Z" fill="#F9F9F9"/>
<path d="M44 13H42.9333C42.9333 12.5423 42.8427 12.0891 42.6667 11.6667H41.3333C41.1573 12.0891 41.0667 12.5423 41.0667 13H40C40.1968 12.2646 40.4648 11.5502 40.8 10.8667C41.1105 10.2903 41.2924 9.65343 41.3333 9H42.6667L43.2 10.8667C43.5353 11.5502 43.8032 12.2646 44 13ZM42.4 11.1335L41.8667 9.53337L41.3333 11.1335H42.4Z" fill="#FCFCFD"/>
<path d="M47 13H46.25C46.25 12.7333 46 12.4667 45.5 11.6667C45.1209 11.113 44.8644 10.4748 44.75 9.80013H44.5C44.7021 10.2096 44.7889 10.6726 44.75 11.1335V13H44V9H44.75L45.5 10.3333L46.5 11.9334V10.6001C46.5 10.0668 46.25 9.53333 46.25 9H47V13Z" fill="#FCFCFD"/>
<path d="M51 10.8667C50.9841 11.3594 50.821 11.8306 50.5385 12.2C50.1834 12.6629 49.6874 12.9495 49.1538 13H48V9H49.1538C49.8461 9 50.3077 9.00003 50.5385 9.53337C50.821 9.90282 50.9841 10.374 51 10.8667ZM50.3077 10.8667L49.8462 10.0667C49.7387 9.90114 49.5993 9.76672 49.4391 9.67415C49.2789 9.58158 49.1022 9.53337 48.9231 9.53337H48.6923V12.2H49.8462C50.0252 12.0518 50.1638 11.8476 50.2455 11.6113C50.3273 11.3751 50.3489 11.1167 50.3077 10.8667Z" fill="#FCFCFD"/>
<path d="M55 13H54C54 12.2 53.75 11.6667 53.5 11.6667C53.25 11.6667 53.25 11.4001 53 11.4001H52.75V13H52V9H53.25C54.25 9 54.5 9.2668 54.5 9.80013C54.5 10.3335 54.25 10.8667 54 10.8667C54 11.1334 54.25 11.1334 54.5 11.4001C54.6258 11.947 54.793 12.482 55 13ZM54 10.0667C54 9.80007 53.75 9.53337 53.25 9.53337H52.75V10.8667H53C53.5 10.8667 54 10.6001 54 10.0667Z" fill="#FCFCFD"/>
<path d="M58 10.8667C57.9571 11.4337 57.8105 11.9811 57.5714 12.4668L56.5 13L55.4286 12.4668C55 12.2001 55 11.6668 55 11.1335C55 10.6001 55 9.80003 55.4286 9.53337C55.8571 9.2667 56.0714 9 56.5 9C56.9286 9 57.3571 9.00003 57.5714 9.53337C57.8338 9.90282 57.9853 10.374 58 10.8667ZM57.3571 10.8667C57.3892 10.4908 57.3133 10.113 57.1428 9.80013H55.8572C55.6867 10.113 55.6108 10.4908 55.6429 10.8667C55.6429 11.4 55.6429 11.6668 55.8572 11.9334L56.5 12.4668L57.1428 11.9334C57.3571 11.6668 57.3571 11.4 57.3571 10.8667Z" fill="#FCFCFD"/>
<path d="M60 13H59V9H60C59.7784 9.59208 59.6927 10.2321 59.75 10.8667C59.7094 11.5882 59.7942 12.3114 60 13Z" fill="#FCFCFD"/>
<path d="M64 10.8605C63.9828 11.3515 63.8061 11.8211 63.5 12.1893C63.3531 12.4659 63.1319 12.6897 62.8646 12.8317C62.5974 12.9738 62.2963 13.0277 62 12.9866H61V9H62C62.75 9 63.25 9.00003 63.5 9.53158C63.8061 9.8998 63.9828 10.3694 64 10.8605ZM63.25 10.8605C63.25 10.5947 63 10.3289 63 10.0632C62.8836 9.89812 62.7326 9.76416 62.559 9.6719C62.3855 9.57964 62.1941 9.53158 62 9.53158H61.5C61.5 10.0631 61.75 10.3289 61.75 10.8605V12.1893H63C63.25 11.6578 63.25 11.392 63.25 10.8605Z" fill="#FCFCFD"/>
<path d="M70 13H68.9333C68.9333 12.5423 68.8427 12.0891 68.6667 11.6667H67.3333C67.1573 12.0891 67.0667 12.5423 67.0667 13H66C66.1968 12.2646 66.4647 11.5502 66.8 10.8667L67.6 9H68.6667L69.2 10.8667C69.5352 11.5502 69.8032 12.2646 70 13ZM68.6667 11.1335C68.3772 10.6441 68.1953 10.0985 68.1333 9.53337H67.8667C67.8046 10.0985 67.6228 10.6441 67.3333 11.1335H68.6667Z" fill="#FCFCFD"/>
<path d="M73 10.3333C73 10.5403 72.9507 10.7445 72.8561 10.9297C72.7614 11.1148 72.6239 11.2759 72.4545 11.4001H70.8182C70.8156 11.9447 70.9078 12.4857 71.0909 13H70V9H72.7273C73 9.53333 73 9.8 73 10.3333ZM72.1818 10.3333C72.1818 10.0667 71.9091 9.79997 71.3636 9.79997H70.8182V11.1333H71.0909C71.9091 11.1333 72.1818 10.8667 72.1818 10.3333Z" fill="#FCFCFD"/>
<path d="M76 10.3333C76 10.5403 75.9507 10.7445 75.856 10.9297C75.7613 11.1148 75.6239 11.2759 75.4546 11.4001H73.8182V13H73V9H75.4546C75.7273 9.53333 76 9.8 76 10.3333ZM75.1818 10.3333C75.1818 10.0667 74.9091 9.79997 74.3636 9.79997H73.8182V11.1333H74.0909C74.6364 11.1333 75.1818 10.8667 75.1818 10.3333Z" fill="#FCFCFD"/>
<path d="M81 10.8667C80.9571 11.4337 80.8105 11.9811 80.5714 12.4668L79.5 13L78.4286 12.4668C78 12.2001 78 11.6668 78 11.1335C78 10.6001 78 9.80003 78.4286 9.53337C78.8571 9.2667 79.0714 9 79.5 9C79.9286 9 80.3571 9.00003 80.5714 9.53337C80.8338 9.90282 80.9853 10.374 81 10.8667ZM80.3571 10.8667C80.3571 10.6 80.1429 10.0668 80.1429 9.80013H78.8571C78.6867 10.113 78.6108 10.4908 78.6428 10.8667C78.6428 11.4 78.6428 11.6668 78.8571 11.9334L79.5 12.4668L80.1429 11.9334C80.3572 11.6668 80.3571 11.4 80.3571 10.8667Z" fill="#FCFCFD"/>
<path d="M85 13H84.5C84.5 12.7333 84.25 12.4667 83.5 11.6667C83.1209 11.113 82.8644 10.4748 82.75 9.80013V13H82V9H83L83.5 10.3333C84 11.1333 84.5 11.6668 84.5 11.9334V9H85V13Z" fill="#FCFCFD"/>
<defs>
<linearGradient id="paint0_linear_16_60" x1="16.9533" y1="8" x2="16.9533" y2="36.9517" gradientUnits="userSpaceOnUse">
<stop stop-color="#2079B0"/>
<stop offset="0.32" stop-color="#4A98B5"/>
<stop offset="0.78" stop-color="#81BFBC"/>
<stop offset="1" stop-color="#97CFBF"/>
</linearGradient>
<linearGradient id="paint1_linear_16_60" x1="9.90526" y1="14.93" x2="28.0711" y2="14.93" gradientUnits="userSpaceOnUse">
<stop stop-color="#5ABCAB"/>
<stop offset="1" stop-color="#E6E99A"/>
</linearGradient>
<linearGradient id="paint2_linear_16_60" x1="18.9763" y1="22.9767" x2="18.9763" y2="37.0467" gradientUnits="userSpaceOnUse">
<stop stop-color="#E53432"/>
<stop offset="0.18" stop-color="#D43745"/>
<stop offset="0.73" stop-color="#A33E7C"/>
<stop offset="1" stop-color="#904192"/>
</linearGradient>
<linearGradient id="paint3_linear_16_60" x1="29.525" y1="18.95" x2="29.525" y2="27" gradientUnits="userSpaceOnUse">
<stop stop-color="#F18779"/>
<stop offset="0.64" stop-color="#F9B574"/>
<stop offset="1" stop-color="#FDCB72"/>
</linearGradient>
</defs>
</svg>
