<svg width="22" height="13" viewBox="0 0 22 13" fill="none" xmlns="http://www.w3.org/2000/svg">
<path d="M12.4753 13H9.57401C7.88155 13 4.73843 10.25 2.56241 6.49999C1.52827 5.05255 0.713016 3.45091 0.144616 1.75C-0.0971635 1.25 -0.0972078 0.749998 0.628131 0.749998H3.52952C3.52952 0.749998 4.25486 0.499996 4.73842 1.5C5.36205 2.96989 6.08933 4.39038 6.91442 5.75C7.0964 6.0306 7.35305 6.25072 7.65338 6.38381C7.9537 6.5169 8.28489 6.55725 8.6069 6.49999V2.24999C8.6069 1.24999 6.91445 1.5 7.39801 0.499997L10.0575 0H11.75C11.9103 0.0297093 12.0631 0.0925858 12.1993 0.184865C12.3355 0.277144 12.4522 0.396924 12.5425 0.537009C12.6329 0.677094 12.6949 0.834601 12.7249 1.00008C12.7549 1.16556 12.7522 1.3356 12.7171 1.5V6.25C13.926 6.25 15.135 4 15.8603 2.75C16.5856 1.5 16.5856 1.25 16.8274 0.999999C17.0692 0.749999 17.0692 0.499997 17.7945 0.499997H21.4212C22.1465 0.499997 22.1466 1.25 21.663 1.75C21.0771 2.92636 20.3456 4.01887 19.487 5C19.0425 5.76552 18.4693 6.44282 17.7945 7L19.487 8.75C20.2347 9.49225 20.885 10.3328 21.4212 11.25C22.1465 12 22.1465 12.75 21.1794 12.75H17.3109C16.5856 12.75 16.3439 12 15.8603 11.5L13.926 9.74999C13.926 9.74999 12.9589 9.75 12.9589 10.5V12C12.9589 12.25 12.9589 12.75 12.4753 12.75" fill="white"/>
</svg>
