<svg width="22" height="24" viewBox="0 0 22 24" fill="none" xmlns="http://www.w3.org/2000/svg">
<path d="M22 24H0V22.8047C0.0617756 20.1833 1.13575 17.6904 2.99237 15.8588C4.84898 14.0272 7.34087 13.0022 9.93545 13.0029H12.0645C13.3579 12.971 14.6446 13.201 15.8488 13.6793C17.053 14.1576 18.1503 14.8745 19.0761 15.7879C20.002 16.7012 20.7376 17.7926 21.2397 18.9976C21.7419 20.2027 22.0004 21.4971 22 22.8047V24ZM2.12902 21.8484H19.871C19.5861 19.9694 18.6394 18.2575 17.2051 17.0276C15.7708 15.7977 13.9454 15.1326 12.0645 15.1545H9.93545C8.05457 15.1326 6.22908 15.7977 4.79479 17.0276C3.3605 18.2575 2.4139 19.9694 2.12902 21.8484Z" fill="white"/>
<path d="M11 12C9.57585 11.8122 8.26914 11.0374 7.34267 9.83147C6.41621 8.62554 5.93876 7.07796 6.0063 5.5C6.0063 4.77773 6.13543 4.06253 6.38639 3.39524C6.63735 2.72795 7.00518 2.12164 7.46889 1.61091C7.93259 1.10019 8.48313 0.695064 9.08899 0.418663C9.69486 0.142262 10.3442 0 11 0C11.6557 0 12.3051 0.142262 12.911 0.418663C13.5169 0.695064 14.0673 1.10019 14.531 1.61091C14.9948 2.12164 15.3626 2.72795 15.6135 3.39524C15.8645 4.06253 15.9937 4.77773 15.9937 5.5C16.0612 7.07796 15.5837 8.62554 14.6573 9.83147C13.7308 11.0374 12.4241 11.8122 11 12ZM11 1.25C9.41106 1.25 8.04917 3.25 8.04917 5.5C8.04917 7.75 9.41106 9.75 11 9.75C12.5889 9.75 13.9508 7.75 13.9508 5.5C13.9508 3.25 12.5889 1.25 11 1.25Z" fill="white"/>
</svg>
