<svg width="20" height="21" viewBox="0 0 20 21" fill="none" xmlns="http://www.w3.org/2000/svg">
<path d="M9.87804 0.00300424C7.29057 0.00300424 4.80906 1.01563 2.97944 2.81812C1.14982 4.62061 0.121955 7.06531 0.121955 9.61442C-0.10301 11.0205 -0.0160179 12.458 0.376962 13.8278C0.769942 15.1976 1.45955 16.4672 2.39834 17.5493C3.33713 18.6313 4.50283 19.5001 5.81511 20.0958C7.12739 20.6915 8.55507 21 9.99996 21C11.4449 21 12.8726 20.6915 14.1849 20.0958C15.4972 19.5001 16.6628 18.6313 17.6016 17.5493C18.5404 16.4672 19.2301 15.1976 19.623 13.8278C20.016 12.458 20.103 11.0205 19.878 9.61442C19.8785 8.33175 19.6183 7.06199 19.1128 5.87993C18.6073 4.69788 17.8668 3.62745 16.9349 2.73174C16.003 1.83602 14.8984 1.13314 13.6865 0.664494C12.4745 0.195853 11.1796 -0.0290625 9.87804 0.00300424ZM14.2683 6.49071C14.2683 6.97128 13.7805 10.095 13.7805 10.5756C13.7805 11.0561 13.2927 13.2187 13.2927 13.459C13.2927 13.6993 13.0488 14.1798 12.8049 14.4201H11.8292L8.65853 12.2576C8.52916 12.2576 8.40509 12.2069 8.31361 12.1168C8.22213 12.0267 8.1707 11.9044 8.1707 11.777C8.1707 11.5367 8.41463 11.5367 8.65853 11.0561L10.8536 9.13385L11.5854 8.41299C11.8293 8.17271 11.8292 8.1727 11.8292 7.93242C11.8292 7.69213 11.3415 7.93243 11.3415 8.17271L7.92685 10.3353L6.95119 10.8158C6.95119 11.0561 6.4634 11.2964 5.97559 11.0561L4.26832 10.5756C3.78052 10.5756 3.53657 10.3353 3.53657 10.095C3.53657 9.85471 4.0244 9.8547 4.0244 9.61442L9.63412 7.45186L13.2927 6.01014C13.7805 5.76985 14.0243 5.76985 14.2683 6.01014C14.5122 6.25042 14.5122 6.25043 14.2683 6.49071Z" fill="white"/>
</svg>
