<svg width="24" height="24" viewBox="0 0 24 24" fill="none" xmlns="http://www.w3.org/2000/svg">
<path d="M4.43267 16.0585C5.27895 16.8897 6.28691 17.5384 7.3941 17.9642C8.5013 18.3901 9.68414 18.584 10.8693 18.5341C12.6303 18.539 14.3532 18.0221 15.8206 17.0487L20.7719 22L23 19.7719L18.0487 14.8206C19.2939 13.1256 19.88 11.0355 19.6978 8.9402C19.5156 6.84486 18.5775 4.88733 17.0585 3.43267C15.3286 1.867 13.0787 1 10.7456 1C8.41241 1 6.1625 1.867 4.43267 3.43267C2.867 5.1625 2 7.41241 2 9.74556C2 12.0787 2.867 14.3286 4.43267 16.0585ZM5.91806 4.91806C7.2664 3.6677 9.03065 2.962 10.8693 2.93755C12.6375 2.94959 14.3288 3.66173 15.5731 4.91806C16.2246 5.54201 16.7431 6.29138 17.0973 7.12104C17.4515 7.95069 17.6341 8.84346 17.6341 9.74556C17.6341 10.6477 17.4515 11.5404 17.0973 12.3701C16.7431 13.1997 16.2246 13.9491 15.5731 14.5731C14.2518 15.7734 12.5307 16.4384 10.7456 16.4384C8.96045 16.4384 7.23936 15.7734 5.91806 14.5731C4.71772 13.2518 4.05268 11.5307 4.05268 9.74556C4.05268 7.96045 4.71772 6.23936 5.91806 4.91806Z" fill="white"/>
</svg>
