<svg width="17" height="25" viewBox="0 0 17 25" fill="none" xmlns="http://www.w3.org/2000/svg">
<path d="M8.24241 25C8.24241 25 0 16.8367 0 8.41837C0 6.18568 0.895541 4.04444 2.48959 2.46569C4.08364 0.886936 6.24575 0 8.50008 0C10.7544 0 12.9164 0.886936 14.5104 2.46569C16.1045 4.04444 17 6.18568 17 8.41837C17 16.8367 8.75759 25 8.75759 25H8.24241ZM8.50008 4.08163C7.38204 4.07972 6.30553 4.50144 5.49138 5.26035C4.67722 6.01926 4.18705 7.05787 4.12128 8.16327C4.18311 9.29356 4.66419 10.3614 5.47235 11.1618C6.28052 11.9622 7.35884 12.4388 8.50008 12.5C9.61619 12.4349 10.6649 11.9494 11.4311 11.143C12.1974 10.3367 12.6231 9.27058 12.6212 8.16327C12.6212 7.08075 12.187 6.04257 11.4141 5.27712C10.6413 4.51166 9.59309 4.08163 8.50008 4.08163Z" fill="white"/>
</svg>
