<svg width="17" height="17" viewBox="0 0 17 17" fill="none" xmlns="http://www.w3.org/2000/svg">
<path d="M0 6.59204V8H3.88567C4.93675 7.93996 5.92542 7.46858 6.64823 6.68287C7.37104 5.89715 7.77304 4.85689 7.77141 3.77615C7.91945 2.53034 7.99579 1.27665 8 0.0216138H6.39997C0.685686 -0.213045 0 1.42956 0 6.59204Z" fill="white"/>
<path d="M17 6.59204V8H13.1143C12.0632 7.93996 11.0745 7.46858 10.3517 6.68287C9.62889 5.89715 9.22696 4.85689 9.22859 3.77615C9.08055 2.53034 9.00421 1.27665 9 0.0216138H10.8286C16.5429 -0.213045 17 1.42956 17 6.59204Z" fill="white"/>
<path d="M0 10.4079V9H3.88567C4.93675 9.06004 5.92542 9.53141 6.64823 10.3171C7.37104 11.1028 7.77304 12.1431 7.77141 13.2239C7.91945 14.4697 7.99579 15.7233 8 16.9784H6.39997C0.685686 17.213 0 15.5704 0 10.4079Z" fill="white"/>
<path d="M17 10.4079V9H13.1143C12.0632 9.06004 11.0745 9.53141 10.3517 10.3171C9.62889 11.1028 9.22696 12.1431 9.22859 13.2239C9.08055 14.4697 9.00421 15.7233 9 16.9784H10.8286C16.5429 17.213 17 15.5704 17 10.4079Z" fill="white"/>
</svg>
