<svg width="134" height="44" viewBox="0 0 134 44" fill="none" xmlns="http://www.w3.org/2000/svg">
<path d="M128.174 0H5.82607C2.60841 0 0 2.61938 0 5.85048V38.1497C0 41.3808 2.60841 44 5.82607 44H128.174C131.392 44 134 41.3808 134 38.1497V5.85048C134 2.61938 131.392 0 128.174 0Z" fill="black"/>
<path d="M35 28.8542C34.4982 30.1997 33.8447 31.4854 33.0516 32.6875C32.5148 33.735 31.7605 34.6602 30.8376 35.403C29.9146 36.1459 28.8435 36.6898 27.6934 37C25.7449 37 25.2578 35.5626 22.5787 35.5626C19.8996 35.5626 19.4125 37 17.2206 37C15.0286 37 13.3237 34.6043 12.1059 32.9272C8.45257 27.4168 8.20903 21.1875 10.401 17.8333C11.0306 16.7112 11.9446 15.7685 13.0543 15.0967C14.1639 14.425 15.4314 14.0472 16.7334 14C19.169 14 20.6303 15.4374 22.5787 15.4374C24.5272 15.4374 25.5014 14 28.424 14C29.5333 14.0812 30.6107 14.4024 31.5791 14.9408C32.5475 15.4793 33.383 16.2215 34.0258 17.1146C32.9224 17.7187 32.0193 18.6227 31.4242 19.7183C30.8291 20.814 30.5673 22.0549 30.67 23.2929C30.7728 24.531 31.2357 25.7139 32.0035 26.7001C32.7714 27.6863 33.8116 28.4341 35 28.8542Z" fill="white"/>
<path d="M26.5394 11.6667C27.0804 11.0207 27.485 10.2754 27.7296 9.47418C27.9742 8.67296 28.054 7.83185 27.9643 7C26.2486 7.2941 24.6703 8.11029 23.4522 9.33333C22.3826 10.6502 21.8721 12.3221 22.0273 14C22.9122 13.982 23.7806 13.7619 24.5638 13.3569C25.3469 12.9518 26.0234 12.3731 26.5394 11.6667Z" fill="white"/>
<path d="M46.25 18L41 33H43.25L45 28.4033H50L51.75 33H54L48.75 18H46.25ZM47.5 20.4194C47.75 21.1452 47.75 21.6291 48 22.5968L49.5 26.4677H45.5L46.75 22.3549L47.5 20.4194Z" fill="white"/>
<path d="M60.3452 22.0218C59.6711 21.9477 58.9899 22.0635 58.3755 22.3568C57.761 22.6502 57.2367 23.1099 56.8592 23.6861V22.2595H55V37H57.324V31.7695C57.6181 32.2442 58.0332 32.6279 58.5246 32.8793C59.016 33.1306 59.5651 33.2402 60.1128 33.1961C61.3971 33.1283 62.6232 32.6265 63.5988 31.7695C64.5705 30.4795 65.0645 28.8793 64.9932 27.2523C65.0232 25.8482 64.5239 24.486 63.5988 23.4482C63.2151 22.9526 62.7167 22.5625 62.1486 22.3135C61.5805 22.0644 60.9607 21.9642 60.3452 22.0218ZM59.648 23.6861C61.7396 23.6861 62.4368 25.588 62.4368 27.49C62.4368 29.392 61.5072 31.2939 59.648 31.2939C59.0547 31.2624 58.4867 31.0379 58.0269 30.653C57.567 30.2681 57.2393 29.743 57.0916 29.1543V26.0636C57.1945 25.431 57.5028 24.8524 57.9666 24.421C58.4304 23.9897 59.0227 23.7308 59.648 23.6861Z" fill="white"/>
<path d="M71.5776 22.0218C70.9035 21.9477 70.2223 22.0635 69.6079 22.3568C68.9935 22.6502 68.4691 23.1099 68.0916 23.6861V22.2595H66V37H68.324V31.7695C68.6715 32.246 69.1299 32.6262 69.6575 32.8754C70.1852 33.1245 70.7653 33.2347 71.3452 33.1961C72.5484 33.0783 73.6857 32.5796 74.5988 31.7695C75.5705 30.4795 76.0645 28.8793 75.9932 27.2523C75.9947 25.8927 75.5892 24.5651 74.8312 23.4482C73.9731 22.5523 72.8036 22.0396 71.5776 22.0218ZM70.8804 23.6861C72.972 23.6861 73.9016 25.588 73.9016 27.49C73.9016 29.392 72.7396 31.2939 70.8804 31.2939C70.2871 31.2624 69.7191 31.0379 69.2593 30.653C68.7994 30.2681 68.4717 29.743 68.324 29.1543V26.0636C68.4614 25.4474 68.7802 24.8891 69.2372 24.464C69.6943 24.0389 70.2678 23.7674 70.8804 23.6861Z" fill="white"/>
<path d="M86.2103 23.8721C84.0789 23.1368 83.6052 22.4013 83.6052 21.1757C83.6052 19.9502 84.3157 19.2148 85.9735 19.2148C86.8591 19.2574 87.7353 19.4223 88.5787 19.7051H88.8155L89.526 17.7442H89.2891C88.3506 17.2028 87.2831 16.9479 86.2103 17.0089C83.3684 17.0089 81.2368 18.7246 81.2368 21.1757C81.2368 23.6269 82.6578 24.6075 85.263 25.588C87.8682 26.5685 87.8682 27.0586 87.8682 28.2842C87.8682 29.5098 86.684 30.7354 85.0262 30.7354C83.8642 30.6682 82.7314 30.3331 81.7105 29.7549H81.4737L81 31.7159C82.1249 32.4888 83.4394 32.914 84.7893 32.9415C85.4369 33.0488 86.0993 33.0081 86.7302 32.8226C87.361 32.6371 87.945 32.311 88.4413 31.8674C88.9377 31.4237 89.3343 30.8732 89.6035 30.2543C89.8727 29.6353 90.0079 28.9629 89.9996 28.2842C89.9996 26.3233 88.8155 24.8526 86.2103 23.8721Z" fill="white"/>
<path d="M95.1481 19L92.8148 19.7362V21.6996H91V23.4176H92.8148V29.0623C92.6742 30.1016 92.9519 31.1529 93.5926 32.0074C94.2043 32.6116 95.0422 32.9642 95.9259 32.9891C96.5745 33.0471 97.2224 32.8719 97.7407 32.4982H98V30.7802H96.7037C95.6667 30.7802 95.4074 30.044 95.4074 28.8169V23.1722H98V21.4542H95.1481V19Z" fill="white"/>
<path d="M102.509 22.0089C101.757 21.972 101.005 22.0876 100.305 22.3482C99.6047 22.6087 98.9727 23.008 98.452 23.5186C97.9314 24.0292 97.5343 24.6392 97.288 25.3069C97.0416 25.9746 96.9517 26.6842 97.0245 27.3875C96.955 28.1013 97.0453 28.821 97.2897 29.5002C97.534 30.1794 97.927 30.8031 98.4434 31.3316C98.9597 31.86 99.5882 32.2815 100.288 32.5688C100.988 32.8561 101.745 33.0029 102.509 33C103.262 32.9699 104.002 32.8007 104.685 32.5023C105.369 32.2038 105.983 31.7819 106.492 31.2606C107.002 30.7393 107.397 30.129 107.654 29.4644C107.912 28.7997 108.027 28.0939 107.994 27.3875C108.065 25.9303 107.528 24.5044 106.498 23.412C105.975 22.9289 105.35 22.5544 104.663 22.3126C103.975 22.0709 103.242 21.9675 102.509 22.0089ZM102.509 23.6459C104.504 23.6459 105.501 25.5167 105.501 27.3875C105.501 29.2583 104.254 31.129 102.509 31.129C100.764 31.129 99.5175 29.4921 99.5175 27.3875C99.5175 25.2828 100.265 23.6459 102.509 23.6459Z" fill="white"/>
<path d="M115 22H114.25C113.641 22.0052 113.044 22.1622 112.518 22.4558C111.991 22.7494 111.555 23.1694 111.25 23.674V22.2391H109C109.227 23.3409 109.311 24.4654 109.25 25.587V33H111.5V26.3043C111.562 25.7124 111.853 25.1639 112.315 24.766C112.777 24.368 113.378 24.1491 114 24.1521H115V22Z" fill="white"/>
<path d="M120.395 22.0003C119.625 21.9928 118.862 22.1418 118.159 22.4371C117.455 22.7323 116.829 23.1669 116.321 23.7107C115.814 24.2546 115.438 24.8949 115.22 25.5879C115.001 26.2809 114.945 27.01 115.055 27.7253C114.975 28.4329 115.064 29.1484 115.317 29.8193C115.57 30.4901 115.98 31.0995 116.516 31.6027C117.052 32.1058 117.702 32.4901 118.417 32.7273C119.132 32.9644 119.895 33.0485 120.649 32.9733C121.858 33.0305 123.067 32.8685 124.21 32.4962H124.464L123.955 30.8265H123.701L120.904 31.3035C120.426 31.3395 119.947 31.2779 119.497 31.1228C119.048 30.9677 118.64 30.7229 118.301 30.4053C117.963 30.0877 117.702 29.7048 117.536 29.2833C117.371 28.8618 117.305 28.4116 117.344 27.9639H124.973V27.0097C125.043 26.3952 124.978 25.7739 124.783 25.1837C124.587 24.5936 124.265 24.0471 123.837 23.578C123.408 23.1088 122.882 22.7269 122.29 22.4555C121.698 22.1842 121.053 22.0293 120.395 22.0003ZM120.141 23.6701L121.921 24.1471C122.197 24.4375 122.407 24.7778 122.538 25.1469C122.669 25.516 122.719 25.9064 122.684 26.2941H117.344C117.598 25.1013 118.361 23.6701 120.141 23.6701Z" fill="white"/>
<path d="M41 7.01217H43.3315C44.5062 6.94091 45.6781 7.18369 46.6993 7.70992C47.1143 8.02247 47.4461 8.41452 47.6702 8.85726C47.8944 9.3 48.0052 9.78227 47.9946 10.2685C48.0255 10.7573 47.9237 11.2455 47.6981 11.6911C47.4725 12.1368 47.1297 12.5265 46.6993 12.827C45.6222 13.6543 44.228 14.0716 42.8134 13.9899H41V7.01217ZM42.0362 13.0596H43.0725C43.5445 13.1334 44.0292 13.1082 44.4886 12.986C44.948 12.8638 45.3698 12.6478 45.7209 12.3551C46.072 12.0623 46.343 11.7008 46.5128 11.2985C46.6825 10.8961 46.7463 10.464 46.6993 10.0358C46.6993 8.4077 45.663 7.47739 43.3315 7.47739H42.0362V13.0596Z" fill="white"/>
<path d="M51.1228 13.9897C50.7256 14.0212 50.3252 13.9803 49.9473 13.8694C49.5694 13.7586 49.2223 13.5803 48.9283 13.346C48.6342 13.1117 48.3998 12.8265 48.2399 12.5088C48.0801 12.1911 47.9984 11.848 48 11.5012C47.9984 11.1545 48.0801 10.8112 48.2399 10.4935C48.3998 10.1759 48.6342 9.89079 48.9283 9.65649C49.2223 9.42219 49.5694 9.2439 49.9473 9.13304C50.3252 9.02217 50.7256 8.98111 51.1228 9.01263C51.5088 8.977 51.899 9.01699 52.265 9.12945C52.6309 9.24191 52.9633 9.42412 53.2378 9.66271C53.5122 9.9013 53.7218 10.1902 53.8512 10.5083C53.9806 10.8264 54.0264 11.1657 53.9855 11.5012C53.9855 12.1612 53.6838 12.7942 53.147 13.2609C52.6102 13.7276 51.8821 13.9897 51.1228 13.9897ZM51.1228 13.311C51.6287 13.2556 52.0937 13.0408 52.4295 12.7072C52.7652 12.3736 52.9485 11.9445 52.9445 11.5012C52.9445 11.0812 52.7526 10.6784 52.411 10.3814C52.0693 10.0844 51.606 9.9176 51.1228 9.9176C50.6397 9.9176 50.1764 10.0844 49.8347 10.3814C49.4931 10.6784 49.3012 11.0812 49.3012 11.5012C49.2972 11.9445 49.4805 12.3736 49.8162 12.7072C50.152 13.0408 50.6169 13.2556 51.1228 13.311Z" fill="white"/>
<path d="M54.9412 9L55.6471 11.6191C55.8351 12.1651 55.9922 12.7216 56.1177 13.2858C56.353 12.8096 56.3529 12.0953 56.5882 11.6191L57.5294 9H58.2353L59.1765 11.6191C59.438 12.1387 59.5978 12.7047 59.6471 13.2858C59.8824 12.8096 59.8824 12.0953 60.1176 11.6191L60.8235 9H62L60.1176 14H59.1765L58.4706 11.6191C58.1712 11.1153 58.0089 10.5402 58 9.95242H57.7647C57.7558 10.5402 57.5935 11.1153 57.2941 11.6191L56.5882 14H55.6471L54 9H54.9412Z" fill="white"/>
<path d="M63.2491 10.4409V9.01712H63.9964V9.96628C64.1728 9.6752 64.4272 9.43398 64.7336 9.26723C65.0399 9.10048 65.3873 9.01411 65.7401 9.01712C66.0442 8.97795 66.3537 9.00621 66.6444 9.09967C66.9352 9.19314 67.1993 9.34932 67.4163 9.556C67.6333 9.76269 67.7972 10.0143 67.8954 10.2913C67.9935 10.5682 68.0231 10.863 67.982 11.1527V14H66.9856V11.1527C66.9856 10.7751 66.8281 10.413 66.5478 10.146C66.2675 9.87902 65.8874 9.72907 65.491 9.72907C65.1749 9.7432 64.8688 9.83891 64.6055 10.0061C64.3422 10.1733 64.1317 10.4056 63.9964 10.6781V14H63L63.2491 10.4409Z" fill="white"/>
<path d="M70 7H71V15H70V7Z" fill="white"/>
<path d="M74.8702 13.9874C74.4851 14.023 74.0958 13.9831 73.7308 13.8707C73.3657 13.7583 73.0341 13.5762 72.7603 13.3377C72.4866 13.0992 72.2775 12.8105 72.1484 12.4925C72.0194 12.1745 71.9736 11.8354 72.0145 11.5001C72.0129 11.1535 72.0944 10.8104 72.2539 10.4928C72.4133 10.1753 72.6472 9.89038 72.9405 9.65619C73.2338 9.422 73.5801 9.24379 73.9571 9.13298C74.3341 9.02216 74.7335 8.98112 75.1298 9.01263C75.5148 8.97702 75.9041 9.01698 76.2692 9.12939C76.6342 9.2418 76.9658 9.42392 77.2396 9.6624C77.5134 9.90088 77.7225 10.1896 77.8516 10.5076C77.9806 10.8256 78.0264 11.1647 77.9855 11.5001C77.9855 12.1597 77.6846 12.7924 77.1491 13.2589C76.6135 13.7254 75.8872 13.9874 75.1298 13.9874H74.8702ZM75.1298 13.309C75.6345 13.2536 76.0983 13.0389 76.4333 12.7055C76.7682 12.372 76.951 11.9431 76.947 11.5001C76.8974 11.2005 76.7501 10.9195 76.5227 10.6906C76.2954 10.4617 75.9973 10.2943 75.6641 10.2084C75.3308 10.1225 74.9763 10.1216 74.6425 10.2059C74.3087 10.2902 74.0097 10.4562 73.7808 10.684C73.552 10.9118 73.4029 11.1919 73.3513 11.4912C73.2997 11.7906 73.3478 12.0966 73.4898 12.3729C73.6318 12.6492 73.8617 12.8842 74.1524 13.0501C74.4431 13.216 74.7823 13.3059 75.1298 13.309Z" fill="white"/>
<path d="M83.7369 12.6364V13.7728H82.6842V13.3182C82.1838 13.7277 81.5306 13.9694 80.8421 14C79.5263 14 79 13.3182 79 12.6364C79 11.9546 80.3158 10.8183 82.6842 10.8183C82.6842 10.591 82.4211 9.90914 81.1053 9.90914H79.5263V9.45457L81.6316 9C83.4737 9 84 9.9092 84 10.8183L83.7369 12.6364ZM82.6842 11.5001C81.3684 11.2728 80.0526 11.5 80.0526 12.4091C80.0526 12.6502 80.1635 12.8814 80.3609 13.0519C80.5583 13.2224 80.8261 13.3182 81.1053 13.3182C81.4392 13.3047 81.7626 13.2129 82.0407 13.0527C82.3189 12.8926 82.5413 12.6701 82.6842 12.4091V11.5001Z" fill="white"/>
<path d="M89 7V14.7466H88.0932V13.997C87.8962 14.3234 87.6252 14.5873 87.307 14.7626C86.9889 14.9379 86.6348 15.0185 86.2796 14.9964C85.9619 14.9982 85.6473 14.9262 85.3564 14.7853C85.0654 14.6444 84.8046 14.4377 84.5909 14.1785C84.3771 13.9193 84.2152 13.6135 84.1155 13.2809C84.0159 12.9483 83.9809 12.5963 84.0127 12.2477C83.977 11.8771 84.0169 11.5024 84.1296 11.151C84.2423 10.7996 84.4249 10.4805 84.664 10.2169C84.903 9.95339 85.1926 9.75213 85.5114 9.6279C85.8302 9.50368 86.1701 9.45952 86.5063 9.49887C86.8065 9.46861 87.1088 9.52142 87.3859 9.65231C87.663 9.7832 87.9061 9.98817 88.0932 10.2487V7H89ZM88.0932 11.7479C88.0932 11.498 88.0932 11.498 87.8665 11.2481C87.6398 10.9982 87.4131 10.2487 86.5063 10.2487C86.2774 10.2461 86.0507 10.2981 85.8418 10.4012C85.6328 10.5043 85.4466 10.656 85.2958 10.8459C85.145 11.0358 85.0334 11.2593 84.9684 11.5013C84.9034 11.7433 84.8867 11.998 84.9194 12.2477C84.916 12.7373 85.0756 13.2113 85.3681 13.5798C85.6606 13.9483 86.0656 14.1856 86.5063 14.2468C86.831 14.2518 87.1466 14.1285 87.3961 13.8994C87.6456 13.6702 87.8124 13.3503 87.8665 12.9974C88.0932 12.9974 88.0932 12.7474 88.0932 12.4976V11.7479Z" fill="white"/>
<path d="M96.5 13.9874C96.1646 14.023 95.8255 13.9831 95.5076 13.8707C95.1896 13.7583 94.9008 13.5762 94.6623 13.3377C94.4238 13.0992 94.2417 12.8105 94.1293 12.4925C94.0169 12.1745 93.977 11.8354 94.0126 11.5001C93.977 11.1647 94.0169 10.8256 94.1293 10.5076C94.2417 10.1896 94.4238 9.90088 94.6623 9.6624C94.9008 9.42392 95.1896 9.2418 95.5076 9.12939C95.8255 9.01698 96.1646 8.97702 96.5 9.01263C96.8354 8.97702 97.1745 9.01698 97.4924 9.12939C97.8104 9.2418 98.0992 9.42392 98.3377 9.6624C98.5762 9.90088 98.7583 10.1896 98.8707 10.5076C98.9831 10.8256 99.023 11.1647 98.9874 11.5001C98.9874 12.1597 98.7253 12.7924 98.2588 13.2589C97.7923 13.7254 97.1597 13.9874 96.5 13.9874ZM96.5 13.309C96.9396 13.2536 97.3436 13.0389 97.6353 12.7055C97.9271 12.372 98.0863 11.9431 98.0828 11.5001C98.0828 11.2922 98.0419 11.0864 97.9624 10.8943C97.8828 10.7023 97.7662 10.5277 97.6193 10.3808C97.4723 10.2338 97.2978 10.1172 97.1057 10.0377C96.9137 9.95811 96.7078 9.91717 96.5 9.91717C96.2921 9.91717 96.0863 9.95811 95.8943 10.0377C95.7022 10.1172 95.5277 10.2338 95.3807 10.3808C95.2338 10.5277 95.1172 10.7023 95.0376 10.8943C94.9581 11.0864 94.9171 11.2922 94.9171 11.5001C94.9136 11.9431 95.0729 12.372 95.3646 12.7055C95.6564 13.0389 96.0604 13.2536 96.5 13.309Z" fill="white"/>
<path d="M100.249 10.4409V9.01712H100.996V9.96628C101.149 9.65616 101.398 9.39846 101.71 9.22856C102.023 9.05866 102.382 8.9848 102.74 9.01712C103.044 8.97795 103.354 9.00621 103.644 9.09967C103.935 9.19314 104.199 9.34932 104.416 9.556C104.633 9.76269 104.797 10.0143 104.895 10.2913C104.993 10.5682 105.023 10.863 104.982 11.1527V14H103.737V11.1527C103.737 10.4408 103.487 9.72907 102.491 9.72907C102.175 9.7432 101.869 9.83891 101.606 10.0061C101.342 10.1733 101.132 10.4056 100.996 10.6781V14H100L100.249 10.4409Z" fill="white"/>
<path d="M110.714 8V9.29629H112V10.0742H110.714V13.1852C110.714 13.7037 110.929 14.2223 111.357 14.2223H112V15H111.143L110.071 14.4815C109.868 14.0973 109.791 13.6345 109.857 13.1852V10.0742H109V9.29629H109.857V8.25935L110.714 8Z" fill="white"/>
<path d="M113 7H113.996V10.5C114.329 10 114.578 9.75008 114.744 9.75008H115.74C116.044 9.70881 116.354 9.73858 116.644 9.83706C116.935 9.93553 117.199 10.1001 117.416 10.3179C117.633 10.5356 117.797 10.8006 117.895 11.0924C117.993 11.3842 118.023 11.6948 117.982 12V15H116.737V12C116.737 11.25 116.487 10.5 115.491 10.5C115.175 10.5149 114.869 10.6159 114.606 10.7921C114.342 10.9683 114.132 11.213 113.996 11.5001V15H113V7Z" fill="white"/>
<path d="M120.247 12.2727C120.204 12.5204 120.226 12.7736 120.311 13.0119C120.396 13.2503 120.542 13.4668 120.737 13.6441C120.931 13.8213 121.169 13.9541 121.43 14.0318C121.691 14.1094 121.969 14.1297 122.241 14.0909H123.737V14.5454L121.742 15C121.015 15 120.317 14.7366 119.803 14.2677C119.289 13.7989 119 13.163 119 12.5C119 11.8369 119.289 11.201 119.803 10.7322C120.317 10.2633 121.015 10 121.742 10C122.059 9.99825 122.373 10.0576 122.663 10.1743C122.953 10.291 123.212 10.4624 123.424 10.6771C123.636 10.8918 123.796 11.145 123.893 11.4201C123.989 11.6951 124.021 11.9857 123.986 12.2727H119.997H120.247ZM123.238 11.8182C123.238 11.1364 122.989 10.2273 121.742 10.2273C121.324 10.2823 120.942 10.474 120.667 10.7666C120.391 11.0592 120.242 11.4328 120.247 11.8182H123.238Z" fill="white"/>
</svg>
